<?xml version="1.0" standalone="no"?><!DOCTYPE svg PUBLIC "-//W3C//DTD SVG 1.1//EN" "http://www.w3.org/Graphics/SVG/1.1/DTD/svg11.dtd"><svg t="1694656170777" class="icon" viewBox="0 0 1024 1024" version="1.1" xmlns="http://www.w3.org/2000/svg" p-id="1082" xmlns:xlink="http://www.w3.org/1999/xlink" width="200" height="200"><path d="M512 170.666667c-188.544 0-341.333333 152.832-341.333333 341.333333s152.789333 341.333333 341.333333 341.333333 341.333333-152.832 341.333333-341.333333-152.789333-341.333333-341.333333-341.333333zM670.165333 609.834667c16.682667 16.682667 16.682667 43.648 0 60.330667-8.32 8.32-19.242667 12.501333-30.165333 12.501333s-21.845333-4.181333-30.165333-12.501333l-97.834667-97.834667-97.834667 97.834667c-8.32 8.32-19.242667 12.501333-30.165333 12.501333s-21.845333-4.181333-30.165333-12.501333c-16.682667-16.682667-16.682667-43.648 0-60.330667l97.834667-97.834667-97.834667-97.834667c-16.682667-16.682667-16.682667-43.648 0-60.330667s43.648-16.682667 60.330667 0l97.834667 97.834667 97.834667-97.834667c16.682667-16.682667 43.648-16.682667 60.330667 0s16.682667 43.648 0 60.330667l-97.834667 97.834667 97.834667 97.834667z" p-id="1083"></path></svg>