<?xml version="1.0" standalone="no"?><!DOCTYPE svg PUBLIC "-//W3C//DTD SVG 1.1//EN" "http://www.w3.org/Graphics/SVG/1.1/DTD/svg11.dtd"><svg t="1694657399157" class="icon" viewBox="0 0 1024 1024" version="1.1" xmlns="http://www.w3.org/2000/svg" p-id="2238" xmlns:xlink="http://www.w3.org/1999/xlink" width="200" height="200"><path d="M922.4 392c13.1-17.8 9.3-42.8-8.5-55.9-17.3-12.7-41.6-9.5-55 7.3L803.2 416c-73.8 96.2-179.4 151.4-289.6 151.4-110.3 0-215.8-55.2-289.6-151.4l-55.7-72.6c-13.4-17.5-38.5-20.9-56.1-7.4-17.5 13.4-20.9 38.5-7.4 56.1l55.7 72.6c11.5 15 23.8 29.3 36.8 42.9l-72.9 104.1c-12.5 18.2-7.9 43.1 10.3 55.7 18 12.4 42.6 8 55.3-9.8l67.7-96.7c62.7 47.2 137 76.4 215.1 84.5v116c0.8 22.1 19.3 39.4 41.4 38.6 21-0.7 37.9-17.6 38.6-38.6V645.6c78.2-7.9 152.7-36.9 215.6-83.9l67.2 95.9c12.7 18.1 37.6 22.5 55.7 9.8s22.5-37.6 9.8-55.7l-72.2-103.1c13.4-13.9 26-28.5 37.8-43.9l55.7-72.7z" p-id="2239"></path></svg>