<?xml version="1.0" standalone="no"?><!DOCTYPE svg PUBLIC "-//W3C//DTD SVG 1.1//EN" "http://www.w3.org/Graphics/SVG/1.1/DTD/svg11.dtd"><svg t="1694657382276" class="icon" viewBox="0 0 1024 1024" version="1.1" xmlns="http://www.w3.org/2000/svg" p-id="1954" xmlns:xlink="http://www.w3.org/1999/xlink" width="200" height="200"><path d="M929.1 508.2v-1c0-8.7-2.9-17.1-8.2-23.9l-55.5-72.4c-88.8-115.7-217.1-182-352-182s-263.2 66.4-352 182.1l-55.5 72.3c-5.3 6.9-8.1 15.3-8.2 23.9v2c0 8.7 2.9 17.1 8.2 23.9l55.5 72.3c88.8 115.7 217.1 182 352 182s263.2-66.4 352-182l55.5-72.4c5.3-6.9 8.2-15.3 8.2-23.9v-0.9zM513.4 365.8c64.5 0.1 116.8 52.4 116.7 117-0.1 64.5-52.4 116.8-117 116.7-64.5-0.1-116.7-52.3-116.7-116.8 0.1-64.6 52.5-116.9 117-116.9z m288.7 191.1c-73.6 95.9-178.8 150.8-288.6 150.8s-215.1-55-288.6-150.8l-37.4-48.8 37.4-48.8c41.2-54.7 96.1-97.7 159.2-124.5-81.8 71.5-90.1 195.8-18.6 277.6s195.8 90.1 277.6 18.6 90.1-195.8 18.6-277.6c-5.8-6.6-12-12.8-18.6-18.6 63 26.8 117.9 69.8 159.1 124.5l37.4 48.8-37.5 48.8z" p-id="1955"></path></svg>