<?xml version="1.0" standalone="no"?><!DOCTYPE svg PUBLIC "-//W3C//DTD SVG 1.1//EN" "http://www.w3.org/Graphics/SVG/1.1/DTD/svg11.dtd"><svg t="1694656011813" class="icon" viewBox="0 0 1024 1024" version="1.1" xmlns="http://www.w3.org/2000/svg" p-id="9368" xmlns:xlink="http://www.w3.org/1999/xlink" width="200" height="200"><path d="M465.92 803.84a337.92 337.92 0 1 1 238.933333-576 337.92 337.92 0 0 1-238.933333 576z m0-611.84a273.706667 273.706667 0 1 0 193.706667 80A273.493333 273.493333 0 0 0 465.92 192z" fill="#3C3D3F" p-id="9369"></path><path d="M864 896a32.213333 32.213333 0 0 1-22.613333-9.386667L659.626667 704A32 32 0 0 1 704 659.626667l181.76 181.76a31.786667 31.786667 0 0 1 0 45.226666 32.213333 32.213333 0 0 1-21.76 9.386667z" fill="#3C3D3F" p-id="9370"></path></svg>