<?xml version="1.0" standalone="no"?><!DOCTYPE svg PUBLIC "-//W3C//DTD SVG 1.1//EN" "http://www.w3.org/Graphics/SVG/1.1/DTD/svg11.dtd"><svg t="1694657436963" class="icon" viewBox="0 0 1024 1024" version="1.1" xmlns="http://www.w3.org/2000/svg" p-id="2949" xmlns:xlink="http://www.w3.org/1999/xlink" width="200" height="200"><path d="M893.7 256H683.3v-49.5c0-43.2-35.1-78.3-78.3-78.3H418.8c-43.2 0-78.3 35.1-78.3 78.3V256H133.4c-19.3 0-35 15.7-35 35s15.7 35 35 35H192v456c0 62.8 50.9 113.7 113.7 113.7H718c62.8 0 113.7-50.9 113.7-113.7V326h61.9c19.3 0 35-15.7 35-35s-15.6-35-34.9-35z m-483.2-49.6c0-4.6 3.7-8.3 8.3-8.3H605c4.6 0 8.3 3.7 8.3 8.3V256H410.5v-49.6zM761.7 782c0 24.1-19.6 43.7-43.7 43.7H305.7c-24.1 0-43.7-19.6-43.7-43.7V326h499.7v456z" p-id="2950"></path><path d="M419.3 757c19.3 0 35-15.7 35-35V430.6c0-19.3-15.7-35-35-35s-35 15.7-35 35V722c0 19.3 15.6 35 35 35zM605.3 757c19.3 0 35-15.7 35-35V430.7c0-19.3-15.7-35-35-35s-35 15.7-35 35V722c0 19.3 15.7 35 35 35z" p-id="2951"></path></svg>