<?xml version="1.0" standalone="no"?><!DOCTYPE svg PUBLIC "-//W3C//DTD SVG 1.1//EN" "http://www.w3.org/Graphics/SVG/1.1/DTD/svg11.dtd"><svg t="1694657429187" class="icon" viewBox="0 0 1024 1024" version="1.1" xmlns="http://www.w3.org/2000/svg" p-id="2806" xmlns:xlink="http://www.w3.org/1999/xlink" width="200" height="200"><path d="M484.6 138.9c0.3-0.2 0.5-0.4 0.8-0.7 0.3-0.2 0.5-0.5 0.8-0.7 0.3-0.3 0.7-0.5 1-0.8 0.2-0.2 0.4-0.3 0.6-0.5 0.4-0.3 0.7-0.5 1.1-0.8 0.2-0.1 0.4-0.3 0.6-0.4 0.4-0.3 0.8-0.5 1.2-0.7 0.2-0.1 0.4-0.2 0.6-0.4 0.4-0.2 0.8-0.5 1.2-0.7 0.2-0.1 0.4-0.2 0.6-0.4 0.4-0.2 0.7-0.4 1.1-0.6 0.2-0.1 0.5-0.3 0.7-0.4 0.3-0.2 0.7-0.3 1-0.5 0.3-0.1 0.6-0.3 0.9-0.4 0.3-0.1 0.6-0.2 0.9-0.4 0.3-0.1 0.7-0.3 1-0.4 0.3-0.1 0.5-0.2 0.8-0.3 0.4-0.1 0.8-0.3 1.2-0.4 0.2-0.1 0.5-0.1 0.7-0.2 0.4-0.1 0.8-0.2 1.3-0.3 0.2-0.1 0.5-0.1 0.7-0.2 0.4-0.1 0.9-0.2 1.3-0.3 0.2 0 0.5-0.1 0.7-0.1 0.4-0.1 0.9-0.2 1.3-0.2 0.3 0 0.6-0.1 0.8-0.1 0.4-0.1 0.8-0.1 1.2-0.1 0.4 0 0.7-0.1 1.1-0.1 0.3 0 0.6-0.1 0.9-0.1 1.4-0.1 2.8-0.1 4.2 0 0.3 0 0.6 0 0.9 0.1 0.4 0 0.7 0 1.1 0.1 0.4 0 0.8 0.1 1.2 0.1 0.3 0 0.6 0.1 0.8 0.1 0.4 0.1 0.9 0.1 1.3 0.2 0.2 0 0.5 0.1 0.7 0.1 0.4 0.1 0.9 0.2 1.3 0.3 0.2 0.1 0.5 0.1 0.7 0.2 0.4 0.1 0.8 0.2 1.3 0.3 0.2 0.1 0.5 0.1 0.7 0.2 0.4 0.1 0.8 0.2 1.2 0.4 0.3 0.1 0.6 0.2 0.8 0.3 0.3 0.1 0.7 0.3 1 0.4 0.3 0.1 0.6 0.2 0.9 0.4 0.3 0.1 0.6 0.3 0.9 0.4 0.3 0.2 0.7 0.3 1 0.5 0.3 0.1 0.5 0.2 0.7 0.4 0.4 0.2 0.7 0.4 1.1 0.6 0.2 0.1 0.4 0.2 0.6 0.4 0.4 0.2 0.8 0.4 1.2 0.7 0.2 0.1 0.4 0.2 0.6 0.4 0.4 0.2 0.8 0.5 1.2 0.7 0.2 0.1 0.4 0.3 0.6 0.4 0.4 0.3 0.7 0.5 1.1 0.8 0.2 0.2 0.4 0.3 0.6 0.5 0.3 0.3 0.7 0.5 1 0.8 0.3 0.2 0.5 0.5 0.8 0.7 0.3 0.2 0.5 0.4 0.8 0.7 0.5 0.4 1 0.9 1.4 1.4l0.1 0.1 170 169.6c16.5 16.5 16.5 43.3 0 59.8s-43.3 16.5-59.8 0l-97.5-97.5v355.5c0 23.3-18.9 42.3-42.3 42.3s-42.3-18.9-42.3-42.3V272.3l-97.5 97.5c-16.5 16.5-43.3 16.5-59.8 0-8.3-8.3-12.4-19.1-12.4-29.9 0-10.8 4.1-21.6 12.4-29.9l169.6-169.6 0.1-0.1c0.6-0.5 1.1-0.9 1.6-1.4z" p-id="2807"></path><path d="M129.7 729.5V547.9c0-19.3 15.7-35 35-35s35 15.7 35 35v181.7c0 52.9 42.9 95.7 95.7 95.7h435.1c52.9 0 95.7-42.9 95.7-95.7V547.9c0-19.3 15.7-35 35-35s35 15.7 35 35v181.7c0 91.5-74.2 165.7-165.7 165.7H295.4c-91.5 0-165.7-74.2-165.7-165.8z" p-id="2808"></path></svg>