<?xml version="1.0" standalone="no"?><!DOCTYPE svg PUBLIC "-//W3C//DTD SVG 1.1//EN" "http://www.w3.org/Graphics/SVG/1.1/DTD/svg11.dtd"><svg t="1695622624635" class="icon" viewBox="0 0 1024 1024" version="1.1" xmlns="http://www.w3.org/2000/svg" p-id="1675" xmlns:xlink="http://www.w3.org/1999/xlink" width="200" height="200"><path d="M883.2 328.533333 883.2 328.533333l-426.666667 426.666667 0 0C450.133333 763.733333 439.466667 768 426.666667 768s-23.466667-4.266667-29.866667-12.8l0 0-256-256 0 0C132.266667 492.8 128 482.133333 128 469.333333c0-23.466667 19.2-42.666667 42.666667-42.666667 12.8 0 23.466667 4.266667 29.866667 12.8l0 0L426.666667 665.6l396.8-396.8 0 0c8.533333-8.533333 19.2-12.8 29.866667-12.8 23.466667 0 42.666667 19.2 42.666667 42.666667C896 311.466667 891.733333 322.133333 883.2 328.533333z" p-id="1676"></path></svg>