<?xml version="1.0" standalone="no"?><!DOCTYPE svg PUBLIC "-//W3C//DTD SVG 1.1//EN" "http://www.w3.org/Graphics/SVG/1.1/DTD/svg11.dtd"><svg viewBox="0 0 1024 1024" version="1.1" xmlns="http://www.w3.org/2000/svg" xmlns:xlink="http://www.w3.org/1999/xlink" width="200" height="200"><path d="M511 465.95l198.476-196.68c12.554-12.44 32.814-12.348 45.254 0.206 12.44 12.554 12.348 32.814-0.206 45.254L556.462 511l198.062 196.27c12.554 12.44 12.646 32.7 0.206 45.254-12.44 12.554-32.7 12.646-45.254 0.206l-198.476-196.68-198.476 196.68c-12.554 12.44-32.814 12.348-45.254-0.206-12.44-12.554-12.348-32.814 0.206-45.254l198.062-196.27-198.062-196.27c-12.554-12.44-12.646-32.7-0.206-45.254 12.44-12.554 32.7-12.646 45.254-0.206l198.476 196.68z"></path></svg>